<svg width="40" height="40" viewBox="-1 -1 18 18" fill="none" xmlns="http://www.w3.org/2000/svg">
    <g fill="none" fill-rule="evenodd">
        <path fill="#40B6E0" fill-opacity=".6"
              d="M10.3901729,1.41867981 L9,2.80322266 L9,3.85714286 L11,3.85714286 L11,8 L15,8 C15,11.866 11.866,15 8,15 C4.134,15 1,11.866 1,8 C1,4.134 4.134,1 8,1 C8.83943175,1 9.64435244,1.14775632 10.3901729,1.41867981 Z"
              transform="matrix(1 0 0 -1 0 16)"/>
        <text fill="#231F20" fill-opacity=".7" x="1.7" y="10.35" style="letter-spacing:-0.07em;" font-weight="bold"
              font-size="7px" font-family="Arial">var
        </text>
        <path fill="#9AA7B0" d="M4,4 L6,4 L3,7 L0,4 L2,4 L2,0 L4,0 L4,4 Z" transform="translate(10 9)"/>
    </g>
</svg>
